<?xml version="1.0" encoding="UTF-8"?>
<svg role="img" viewBox="0 0 16 16" width="24" height="24" xmlns="http://www.w3.org/2000/svg">
  <title>GitHub icon</title>
  <path fill-rule="evenodd" clip-rule="evenodd" d="M8 0C3.582 0 0 3.582 0 8c0 3.538 2.292 6.532 5.47 7.59.4.074.547-.172.547-.384 0-.19-.007-.693-.012-1.36-2.226.483-2.695-1.073-2.695-1.073-.364-.924-.89-1.17-.89-1.17-.727-.497.055-.487.055-.487.803.056 1.226.825 1.226.825.715 1.225 1.874.872 2.33.667.073-.517.28-.872.508-1.073-1.777-.202-3.644-.888-3.644-3.95 0-.873.312-1.588.824-2.148-.083-.203-.357-1.017.078-2.117 0 0 .672-.215 2.2.82a7.65 7.65 0 012.003-.27 7.65 7.65 0 012.003.27c1.527-1.035 2.197-.82 2.197-.82.437 1.1.164 1.914.081 2.117.513.56.823 1.275.823 2.148 0 3.073-1.868 3.746-3.65 3.943.287.248.543.737.543 1.486 0 1.073-.01 1.937-.01 2.2 0 .213.146.462.55.383A8.013 8.013 0 0016 8c0-4.418-3.582-8-8-8z" fill="#181717"/>
</svg>
